<svg width="24" height="24" viewBox="0 0 24 24" fill="none" xmlns="http://www.w3.org/2000/svg">
<path d="M15.4496 12.5005C15.4496 11.453 15.0331 10.4482 14.2924 9.70752C13.5518 8.96693 12.5477 8.55041 11.5004 8.55029C10.4529 8.55029 9.44814 8.9668 8.70742 9.70752C6.34599 12.069 4.4824 15.7351 3.18496 20.814C7.76537 19.644 11.1973 18.0151 13.559 15.9741L11.2924 13.7075C10.9019 13.317 10.9019 12.683 11.2924 12.2925C11.6829 11.902 12.3169 11.902 12.7074 12.2925L14.9076 14.4927C15.2583 13.893 15.4495 13.2071 15.4496 12.5005ZM17.4496 12.5005C17.4495 14.0783 16.8231 15.5918 15.7074 16.7075C12.8581 19.5569 8.52815 21.6128 2.84512 22.9595C2.59624 23.0184 2.33632 23.0136 2.09024 22.9438C1.844 22.874 1.61986 22.742 1.43887 22.561C1.25788 22.38 1.12586 22.1559 1.05606 21.9097C0.986341 21.6636 0.980521 21.4036 1.03945 21.1548C2.38617 15.4718 4.44302 11.1418 7.29238 8.29248C8.40818 7.17669 9.92242 6.55029 11.5004 6.55029C13.0782 6.55041 14.5917 7.17682 15.7074 8.29248C16.8232 9.40827 17.4496 10.9225 17.4496 12.5005Z" fill="#DB8E33"/>
<path d="M14.5391 1.11228C14.8756 0.937351 15.2885 0.966958 15.5996 1.20017C17.0707 2.30348 18 3.64906 18 5.24997C18 5.53054 17.9694 5.80864 17.9141 6.08493C18.1906 6.02948 18.4692 5.99997 18.75 5.99997C20.3509 5.99997 21.6965 6.92927 22.7998 8.40036C23.0663 8.75585 23.0663 9.24409 22.7998 9.59958C21.6965 11.0707 20.3509 12 18.75 12C17.1944 12 15.7031 11.1171 14.293 9.707C12.8828 8.29687 12 6.80553 12 5.24997C12 3.64906 12.9293 2.30348 14.4004 1.20017L14.5391 1.11228ZM18.75 7.99997C18.1411 7.99997 17.3913 8.27703 16.4912 8.99997C17.3913 9.72291 18.1411 9.99997 18.75 9.99997C19.3428 9.99997 19.9933 9.73485 20.6953 8.99997C19.9933 8.26509 19.3428 7.99997 18.75 7.99997ZM15 3.30368C14.2647 4.00584 14 4.65705 14 5.24997C14 5.85878 14.2774 6.60792 15 7.50778C15.7226 6.60792 16 5.85878 16 5.24997C16 4.65705 15.7353 4.00584 15 3.30368Z" fill="#DB8E33"/>
<path d="M4.71294 11.7131C5.10346 11.3225 5.73648 11.3225 6.127 11.7131L8.70708 14.2931C9.09752 14.6837 9.09758 15.3167 8.70708 15.7072C8.31658 16.0977 7.68355 16.0976 7.29302 15.7072L4.71294 13.1271C4.32241 12.7366 4.32241 12.1036 4.71294 11.7131Z" fill="#DB8E33"/>
</svg>
