<svg width="100" height="40" viewBox="0 0 100 40" fill="none" xmlns="http://www.w3.org/2000/svg">
<path d="M21.4496 20.5005C21.4496 19.453 21.0331 18.4482 20.2924 17.7075C19.5518 16.9669 18.5477 16.5504 17.5004 16.5503C16.4529 16.5503 15.4481 16.9668 14.7074 17.7075C12.346 20.069 10.4824 23.7351 9.18496 28.814C13.7654 27.644 17.1973 26.0151 19.559 23.9741L17.2924 21.7075C16.9019 21.317 16.9019 20.683 17.2924 20.2925C17.6829 19.902 18.3169 19.902 18.7074 20.2925L20.9076 22.4927C21.2583 21.893 21.4495 21.2071 21.4496 20.5005ZM23.4496 20.5005C23.4495 22.0783 22.8231 23.5918 21.7074 24.7075C18.8581 27.5569 14.5282 29.6128 8.84512 30.9595C8.59624 31.0184 8.33632 31.0136 8.09024 30.9438C7.844 30.874 7.61986 30.742 7.43887 30.561C7.25788 30.38 7.12586 30.1559 7.05606 29.9097C6.98634 29.6636 6.98052 29.4036 7.03945 29.1548C8.38617 23.4718 10.443 19.1418 13.2924 16.2925C14.4082 15.1767 15.9224 14.5503 17.5004 14.5503C19.0782 14.5504 20.5917 15.1768 21.7074 16.2925C22.8232 17.4083 23.4496 18.9225 23.4496 20.5005Z" fill="#DB8E33"/>
<path d="M20.5391 9.11228C20.8756 8.93735 21.2885 8.96696 21.5996 9.20017C23.0707 10.3035 24 11.6491 24 13.25C24 13.5305 23.9694 13.8086 23.9141 14.0849C24.1906 14.0295 24.4692 14 24.75 14C26.3509 14 27.6965 14.9293 28.7998 16.4004C29.0663 16.7559 29.0663 17.2441 28.7998 17.5996C27.6965 19.0707 26.3509 20 24.75 20C23.1944 20 21.7031 19.1171 20.293 17.707C18.8828 16.2969 18 14.8055 18 13.25C18 11.6491 18.9293 10.3035 20.4004 9.20017L20.5391 9.11228ZM24.75 16C24.1411 16 23.3913 16.277 22.4912 17C23.3913 17.7229 24.1411 18 24.75 18C25.3428 18 25.9933 17.7349 26.6953 17C25.9933 16.2651 25.3428 16 24.75 16ZM21 11.3037C20.2647 12.0058 20 12.657 20 13.25C20 13.8588 20.2774 14.6079 21 15.5078C21.7226 14.6079 22 13.8588 22 13.25C22 12.657 21.7353 12.0058 21 11.3037Z" fill="#DB8E33"/>
<path d="M10.7129 19.7131C11.1035 19.3225 11.7365 19.3225 12.127 19.7131L14.7071 22.2931C15.0975 22.6837 15.0976 23.3167 14.7071 23.7072C14.3166 24.0977 13.6835 24.0976 13.293 23.7072L10.7129 21.1271C10.3224 20.7366 10.3224 20.1036 10.7129 19.7131Z" fill="#DB8E33"/>
<path d="M48.0587 9.411C49.1782 9.02643 50.3729 8.91227 51.545 9.07799C52.7171 9.24373 53.8337 9.68425 54.8028 10.3641C55.7717 11.0439 56.5655 11.9436 57.1202 12.9891C57.6748 14.0348 57.9748 15.1972 57.9942 16.3807C58.0136 17.5644 57.7518 18.7363 57.2315 19.7997C56.7186 20.8481 55.9672 21.7605 55.0391 22.4676L55.0401 22.4686C51.884 25.0986 47.2629 26.9999 43.0001 26.9999H42.9991C42.1746 26.9993 41.3701 26.7436 40.6964 26.2684C40.0229 25.7933 39.5127 25.1218 39.2354 24.3456C38.9581 23.5691 38.9272 22.7251 39.1475 21.9305C39.3635 21.1523 39.8103 20.4587 40.4278 19.9393L40.8184 19.5731C41.6583 18.7572 42.0063 18.2066 42.255 17.6112C42.4097 17.2405 42.5338 16.8335 42.6983 16.2792C42.8599 15.7346 43.0527 15.0773 43.337 14.2684C43.6857 13.1518 44.2902 12.1321 45.1036 11.2909C45.9265 10.4398 46.9391 9.79559 48.0587 9.411ZM51.2647 11.0575C50.4053 10.936 49.529 11.0196 48.7081 11.3016C47.8871 11.5836 47.1445 12.0565 46.5411 12.6805C45.9378 13.3045 45.4907 14.0626 45.2364 14.8924C45.2324 14.9054 45.2282 14.9187 45.2237 14.9315C44.958 15.6875 44.778 16.3003 44.6153 16.8485C44.4555 17.3869 44.3034 17.8962 44.1007 18.3817C43.6698 19.4136 43.0427 20.266 41.7725 21.4198C41.7602 21.431 41.7474 21.4424 41.7345 21.453C41.4156 21.7144 41.1845 22.0684 41.0743 22.4657C40.9642 22.8629 40.9796 23.2846 41.1182 23.6727C41.2569 24.061 41.5128 24.397 41.8497 24.6346C42.1864 24.872 42.5881 24.9985 43.0001 24.9989C46.7371 24.9989 50.9159 23.3014 53.7598 20.9315C53.7727 20.9208 53.7856 20.9103 53.7989 20.9003C54.4929 20.3787 55.0541 19.7006 55.4356 18.9208C55.8171 18.141 56.0084 17.2819 55.9942 16.4139C55.98 15.5459 55.7604 14.6936 55.3536 13.9266C54.9468 13.1597 54.364 12.5004 53.6534 12.0018C52.9427 11.5032 52.1243 11.179 51.2647 11.0575Z" fill="#CE515F"/>
<path d="M56.0621 13.1005C56.5587 12.8588 57.1573 13.0658 57.399 13.5624L59.5894 18.0624L59.6412 18.1903C60.1251 19.6781 60.13 21.2805 59.6558 22.7714C59.1844 24.2534 58.2623 25.5506 57.0191 26.4843C53.8635 29.1056 49.2534 30.9999 44.9996 30.9999H44.9986C44.2563 30.9989 43.5291 30.7912 42.898 30.4003C42.3458 30.0582 41.8865 29.5875 41.5582 29.0302L41.4254 28.787L39.5054 24.9472C39.2585 24.4532 39.4587 23.8524 39.9527 23.6054C40.4467 23.3584 41.0475 23.5587 41.2945 24.0526L43.2144 27.8925V27.8935C43.3802 28.2255 43.6353 28.5047 43.9508 28.7001C44.2661 28.8954 44.6297 28.9983 45.0006 28.9989C48.7374 28.9988 52.9156 27.3013 55.7593 24.9316C55.7732 24.92 55.7879 24.9091 55.8023 24.8984C56.7213 24.2134 57.4022 23.2572 57.7496 22.165C58.0909 21.0919 58.0926 19.9407 57.7564 18.8671L55.6011 14.4374C55.3595 13.9409 55.5656 13.3422 56.0621 13.1005Z" fill="#CE515F"/>
<path d="M52 16.5C52 15.6716 51.3284 15 50.5 15C49.6716 15 49 15.6716 49 16.5C49 17.3284 49.6716 18 50.5 18C51.3284 18 52 17.3284 52 16.5ZM54 16.5C54 18.433 52.433 20 50.5 20C48.567 20 47 18.433 47 16.5C47 14.567 48.567 13 50.5 13C52.433 13 54 14.567 54 16.5Z" fill="#CE515F"/>
<path d="M85.293 15.2929C85.6835 14.9024 86.3166 14.9024 86.7071 15.2929C87.0976 15.6834 87.0976 16.3164 86.7071 16.707L72.7071 30.707C72.3166 31.0975 71.6835 31.0975 71.293 30.707C70.9025 30.3164 70.9025 29.6834 71.293 29.2929L85.293 15.2929Z" fill="#817065"/>
<path d="M76.5503 22.9999C76.5503 22.339 76.2889 21.7047 75.8228 21.2363L74.9995 20.414L74.1772 21.2372L74.1763 21.2363C73.7104 21.7047 73.4497 22.3392 73.4497 22.9999C73.4497 23.6604 73.7107 24.2943 74.1763 24.7626L74.9995 25.5849L75.8228 24.7626C76.2886 24.2942 76.5503 23.6606 76.5503 22.9999ZM78.5503 22.9999C78.5503 24.1903 78.0788 25.3323 77.2388 26.1757L77.2368 26.1767L75.7075 27.707C75.52 27.8945 75.2647 27.9999 74.9995 27.9999C74.7345 27.9998 74.4799 27.8944 74.2925 27.707L72.7632 26.1767L72.7612 26.1757C71.9212 25.3323 71.4497 24.1903 71.4497 22.9999C71.4497 21.8096 71.9212 20.6675 72.7612 19.8241L72.7632 19.8232L74.2925 18.2929C74.683 17.9024 75.317 17.9024 75.7075 18.2929L77.2368 19.8232L77.2388 19.8241C78.0788 20.6675 78.5503 21.8096 78.5503 22.9999Z" fill="#817065"/>
<path d="M80.5503 18.9999C80.5503 18.339 80.2889 17.7047 79.8228 17.2363L78.9995 16.414L78.1772 17.2372L78.1763 17.2363C77.7104 17.7047 77.4497 18.3392 77.4497 18.9999C77.4497 19.6604 77.7107 20.2943 78.1763 20.7626L78.9995 21.5849L79.8228 20.7626C80.2886 20.2942 80.5503 19.6606 80.5503 18.9999ZM82.5503 18.9999C82.5503 20.1903 82.0788 21.3323 81.2388 22.1757L81.2368 22.1767L79.7075 23.707C79.317 24.0975 78.683 24.0975 78.2925 23.707L76.7632 22.1767L76.7612 22.1757C75.9212 21.3323 75.4497 20.1903 75.4497 18.9999C75.4497 17.8096 75.9212 16.6675 76.7612 15.8241L76.7632 15.8232L78.2925 14.2929C78.683 13.9024 79.317 13.9024 79.7075 14.2929L81.2368 15.8232L81.2388 15.8241C82.0788 16.6675 82.5503 17.8096 82.5503 18.9999Z" fill="#817065"/>
<path d="M84.5503 15C84.5503 14.3391 84.2889 13.7048 83.8228 13.2363L82.9995 12.4141L82.1772 13.2373L82.1763 13.2363C81.7104 13.7047 81.4497 14.3393 81.4497 15C81.4497 15.6604 81.7107 16.2943 82.1763 16.7627L82.9995 17.585L83.8228 16.7627C84.2886 16.2943 84.5503 15.6607 84.5503 15ZM86.5503 15C86.5503 16.1904 86.0788 17.3324 85.2388 18.1758L85.2368 18.1768L83.7075 19.707C83.317 20.0976 82.683 20.0976 82.2925 19.707L80.7632 18.1768L80.7612 18.1758C79.9212 17.3324 79.4497 16.1904 79.4497 15C79.4497 13.8096 79.9212 12.6676 80.7612 11.8242L80.7632 11.8232L82.2925 10.293C82.4799 10.1055 82.7345 10.0001 82.9995 10C83.2647 10 83.52 10.1054 83.7075 10.293L85.2368 11.8232L85.2388 11.8242C86.0788 12.6676 86.5503 13.8096 86.5503 15Z" fill="#817065"/>
<path d="M91 12V11H90C89.2044 11 88.4415 11.3163 87.8789 11.8789C87.3163 12.4415 87 13.2044 87 14V15H88C88.7956 15 89.5585 14.6837 90.1211 14.1211C90.6837 13.5585 91 12.7956 91 12ZM93 12C93 13.3261 92.4728 14.5975 91.5352 15.5352C90.5975 16.4728 89.3261 17 88 17H86C85.4477 17 85 16.5523 85 16V14C85 12.6739 85.5272 11.4025 86.4648 10.4648C87.4025 9.52716 88.6739 9 90 9H92C92.5523 9 93 9.44772 93 10V12Z" fill="#817065"/>
<path d="M79 23.4497C80.1158 23.4497 81.189 23.8641 82.0137 24.6079L82.1758 24.7612L82.1768 24.7632L83.7071 26.2925C84.0976 26.683 84.0976 27.317 83.7071 27.7075L82.1768 29.2368L82.1758 29.2388C81.3324 30.0788 80.1904 30.5503 79 30.5503C77.8097 30.5503 76.6677 30.0788 75.8243 29.2388L75.8233 29.2368L74.293 27.7075C73.9025 27.317 73.9025 26.683 74.293 26.2925L75.8233 24.7632L75.8243 24.7612C76.6677 23.9212 77.8097 23.4497 79 23.4497ZM79 25.4497C78.3394 25.4497 77.7048 25.7104 77.2364 26.1763L76.4141 26.9995L77.2374 27.8228H77.2364C77.7048 28.2889 78.3392 28.5503 79 28.5503C79.6607 28.5503 80.2943 28.2886 80.7627 27.8228L81.585 26.9995L80.7627 26.1772V26.1763C80.2944 25.7107 79.6605 25.4497 79 25.4497Z" fill="#817065"/>
<path d="M83 19.4497C84.1158 19.4497 85.189 19.8641 86.0137 20.6079L86.1758 20.7612L86.1768 20.7632L87.7071 22.2925C88.0976 22.683 88.0976 23.317 87.7071 23.7075L86.1768 25.2368L86.1758 25.2388C85.3324 26.0788 84.1904 26.5503 83 26.5503C81.8097 26.5503 80.6677 26.0788 79.8243 25.2388L79.8233 25.2368L78.293 23.7075C77.9025 23.317 77.9025 22.683 78.293 22.2925L79.8233 20.7632L79.8243 20.7612C80.6677 19.9212 81.8097 19.4497 83 19.4497ZM83 21.4497C82.3394 21.4497 81.7048 21.7104 81.2364 22.1763L80.4141 22.9995L81.2374 23.8228H81.2364C81.7048 24.2889 82.3392 24.5503 83 24.5503C83.6607 24.5503 84.2943 24.2886 84.7627 23.8228L85.585 22.9995L84.7627 22.1772V22.1763C84.2944 21.7107 83.6605 21.4497 83 21.4497Z" fill="#817065"/>
<path d="M87 15.4497C88.1158 15.4497 89.189 15.8641 90.0137 16.6079L90.1758 16.7612L90.1768 16.7632L91.7071 18.2925C91.8945 18.4799 91.9999 18.7345 92 18.9995C92 19.2647 91.8946 19.52 91.7071 19.7075L90.1768 21.2368L90.1758 21.2388C89.3324 22.0788 88.1904 22.5503 87 22.5503C85.8097 22.5503 84.6677 22.0788 83.8243 21.2388L83.8233 21.2368L82.293 19.7075C81.9025 19.317 81.9025 18.683 82.293 18.2925L83.8233 16.7632L83.8243 16.7612C84.6677 15.9212 85.8097 15.4497 87 15.4497ZM87 17.4497C86.3394 17.4497 85.7048 17.7104 85.2364 18.1763L84.4141 18.9995L85.2374 19.8228H85.2364C85.7048 20.2889 86.3392 20.5503 87 20.5503C87.6607 20.5503 88.2943 20.2886 88.7627 19.8228L89.585 18.9995L88.7627 18.1772V18.1763C88.2944 17.7107 87.6605 17.4497 87 17.4497Z" fill="#817065"/>
</svg>
